<?xml version="1.0" standalone="no"?><!DOCTYPE svg PUBLIC "-//W3C//DTD SVG 1.1//EN" "http://www.w3.org/Graphics/SVG/1.1/DTD/svg11.dtd"><svg t="1661263061935" class="icon" viewBox="0 0 1024 1024" version="1.1" xmlns="http://www.w3.org/2000/svg" p-id="17881" xmlns:xlink="http://www.w3.org/1999/xlink" width="200" height="200"><defs><style type="text/css">@font-face { font-family: feedback-iconfont; src: url("//at.alicdn.com/t/font_1031158_u69w8yhxdu.woff2?t=1630033759944") format("woff2"), url("//at.alicdn.com/t/font_1031158_u69w8yhxdu.woff?t=1630033759944") format("woff"), url("//at.alicdn.com/t/font_1031158_u69w8yhxdu.ttf?t=1630033759944") format("truetype"); }
</style></defs><path d="M696.121842 126.040523c-61.045285-47.261446-122.090569 47.261446-183.135854 0V19.703769c61.045285 47.261446 122.090569-47.261446 183.135854 0v106.336754z" fill="#FFD15C" p-id="17882"></path><path d="M512.983988 279.638723c-11.815862 0-19.691769-7.875908-19.691769-19.691769V19.703769c0-11.815862 7.875908-19.691769 19.691769-19.691769 11.815862 0 19.691769 7.875908 19.69177 19.691769v240.243185c0 11.815862-7.875908 19.691769-19.69177 19.691769z" fill="#F5B54C" p-id="17883"></path><path d="M215.633473 259.946954h592.731054V1024H215.633473z" fill="#F26F5A" p-id="17884"></path><path d="M288.494619 332.8081h88.614962v88.614961h-88.614962zM469.662496 332.8081h88.614962v88.614961h-88.614962zM648.860396 332.8081h88.614962v88.614961h-88.614962zM288.494619 506.098069h88.614962v88.614962h-88.614962zM469.662496 506.098069h88.614962v88.614962h-88.614962zM648.860396 506.098069h88.614962v88.614962h-88.614962zM288.494619 677.420061h88.614962v88.614962h-88.614962zM469.662496 677.420061h88.614962v88.614962h-88.614962zM648.860396 677.420061h88.614962v88.614962h-88.614962z" fill="#F3F3F3" p-id="17885"></path><path d="M392.863396 832.986238h120.122592V1024h-120.122592z" fill="#425A6B" p-id="17886"></path><path d="M512.983988 832.986238h120.122593V1024h-120.122593z" fill="#344A5E" p-id="17887"></path></svg>